<mxfile host="Electron" agent="Mozilla/5.0 (Windows NT 10.0; Win64; x64) AppleWebKit/537.36 (KHTML, like Gecko) draw.io/24.7.17 Chrome/128.0.6613.36 Electron/32.0.1 Safari/537.36" version="24.7.17">
  <diagram name="Page-1" id="03018318-947c-dd8e-b7a3-06fadd420f32">
    <mxGraphModel dx="1434" dy="836" grid="1" gridSize="10" guides="1" tooltips="1" connect="1" arrows="1" fold="1" page="1" pageScale="1" pageWidth="1100" pageHeight="850" background="none" math="0" shadow="0">
      <root>
        <mxCell id="0" />
        <mxCell id="1" parent="0" />
        <mxCell id="VrX1W8BqQ0QLpx3KH8ts-2" value="Search" style="strokeWidth=1;shadow=0;dashed=0;align=center;html=1;shape=mxgraph.mockup.forms.searchBox;strokeColor=#999999;mainText=;strokeColor2=#008cff;fontColor=#666666;fontSize=17;align=left;spacingLeft=3;rounded=0;labelBackgroundColor=none;comic=1;" parent="1" vertex="1">
          <mxGeometry x="440" y="790" width="220" height="30" as="geometry" />
        </mxCell>
        <mxCell id="VrX1W8BqQ0QLpx3KH8ts-6" value="" style="strokeWidth=1;shadow=0;dashed=0;align=center;html=1;shape=mxgraph.mockup.forms.comboBox;strokeColor=#999999;fillColor=#3d8af7;align=left;fillColor2=#aaddff;mainText=;fontColor=#666666;fontSize=17;spacingLeft=3;" parent="1" vertex="1">
          <mxGeometry x="280" y="790" width="150" height="30" as="geometry" />
        </mxCell>
        <mxCell id="VrX1W8BqQ0QLpx3KH8ts-7" value="Добавить" style="strokeWidth=1;shadow=0;dashed=0;align=center;html=1;shape=mxgraph.mockup.buttons.button;strokeColor=#666666;fontColor=#ffffff;mainText=;buttonStyle=round;fontSize=17;fontStyle=1;fillColor=#008cff;whiteSpace=wrap;" parent="1" vertex="1">
          <mxGeometry x="40" y="170" width="100" height="30" as="geometry" />
        </mxCell>
        <mxCell id="VrX1W8BqQ0QLpx3KH8ts-8" value="Изменить" style="strokeWidth=1;shadow=0;dashed=0;align=center;html=1;shape=mxgraph.mockup.buttons.button;strokeColor=#666666;fontColor=#ffffff;mainText=;buttonStyle=round;fontSize=17;fontStyle=1;fillColor=#008cff;whiteSpace=wrap;" parent="1" vertex="1">
          <mxGeometry x="160" y="170" width="100" height="30" as="geometry" />
        </mxCell>
        <mxCell id="VrX1W8BqQ0QLpx3KH8ts-9" value="Удалить" style="strokeWidth=1;shadow=0;dashed=0;align=center;html=1;shape=mxgraph.mockup.buttons.button;strokeColor=#666666;fontColor=#ffffff;mainText=;buttonStyle=round;fontSize=17;fontStyle=1;fillColor=#008cff;whiteSpace=wrap;" parent="1" vertex="1">
          <mxGeometry x="280" y="170" width="100" height="30" as="geometry" />
        </mxCell>
        <mxCell id="VrX1W8BqQ0QLpx3KH8ts-10" value="Поиск" style="strokeWidth=1;shadow=0;dashed=0;align=center;html=1;shape=mxgraph.mockup.buttons.button;strokeColor=#666666;fontColor=#ffffff;mainText=;buttonStyle=round;fontSize=17;fontStyle=1;fillColor=#008cff;whiteSpace=wrap;" parent="1" vertex="1">
          <mxGeometry x="670" y="790" width="90" height="31" as="geometry" />
        </mxCell>
        <mxCell id="VrX1W8BqQ0QLpx3KH8ts-11" value="Dog Show Administration" style="text;html=1;align=center;verticalAlign=middle;whiteSpace=wrap;rounded=0;fontSize=16;" parent="1" vertex="1">
          <mxGeometry x="20" y="125" width="190" height="19" as="geometry" />
        </mxCell>
        <mxCell id="VrX1W8BqQ0QLpx3KH8ts-13" value="" style="shape=table;html=1;whiteSpace=wrap;startSize=0;container=1;collapsible=0;childLayout=tableLayout;strokeWidth=2;fontSize=17;" parent="1" vertex="1">
          <mxGeometry x="30" y="230" width="1040" height="199" as="geometry" />
        </mxCell>
        <mxCell id="VrX1W8BqQ0QLpx3KH8ts-14" value="" style="shape=tableRow;horizontal=0;startSize=0;swimlaneHead=0;swimlaneBody=0;top=0;left=0;bottom=0;right=0;collapsible=0;dropTarget=0;fillColor=none;points=[[0,0.5],[1,0.5]];portConstraint=eastwest;swimlaneLine=1;" parent="VrX1W8BqQ0QLpx3KH8ts-13" vertex="1">
          <mxGeometry width="1040" height="40" as="geometry" />
        </mxCell>
        <mxCell id="VrX1W8BqQ0QLpx3KH8ts-15" value="Кличка собаки" style="shape=partialRectangle;html=1;whiteSpace=wrap;connectable=0;fillColor=none;top=0;left=0;bottom=0;right=0;overflow=hidden;fontStyle=1;fontSize=14;swimlaneLine=1;" parent="VrX1W8BqQ0QLpx3KH8ts-14" vertex="1">
          <mxGeometry width="208" height="40" as="geometry">
            <mxRectangle width="208" height="40" as="alternateBounds" />
          </mxGeometry>
        </mxCell>
        <mxCell id="VrX1W8BqQ0QLpx3KH8ts-16" value="Порода собаки" style="shape=partialRectangle;html=1;whiteSpace=wrap;connectable=0;fillColor=none;top=0;left=0;bottom=0;right=0;overflow=hidden;fontStyle=1;fontSize=14;swimlaneLine=1;" parent="VrX1W8BqQ0QLpx3KH8ts-14" vertex="1">
          <mxGeometry x="208" width="208" height="40" as="geometry">
            <mxRectangle width="208" height="40" as="alternateBounds" />
          </mxGeometry>
        </mxCell>
        <mxCell id="VrX1W8BqQ0QLpx3KH8ts-17" value="Владелец собаки" style="shape=partialRectangle;html=1;whiteSpace=wrap;connectable=0;fillColor=none;top=0;left=0;bottom=0;right=0;overflow=hidden;fontStyle=1;fontSize=14;swimlaneLine=1;" parent="VrX1W8BqQ0QLpx3KH8ts-14" vertex="1">
          <mxGeometry x="416" width="208" height="40" as="geometry">
            <mxRectangle width="208" height="40" as="alternateBounds" />
          </mxGeometry>
        </mxCell>
        <mxCell id="VrX1W8BqQ0QLpx3KH8ts-18" value="Судья" style="shape=partialRectangle;html=1;whiteSpace=wrap;connectable=0;fillColor=none;top=0;left=0;bottom=0;right=0;overflow=hidden;fontStyle=1;fontSize=14;swimlaneLine=1;" parent="VrX1W8BqQ0QLpx3KH8ts-14" vertex="1">
          <mxGeometry x="624" width="208" height="40" as="geometry">
            <mxRectangle width="208" height="40" as="alternateBounds" />
          </mxGeometry>
        </mxCell>
        <mxCell id="l9pdDCKhReNczKO_Nlx6-6" value="Награды" style="shape=partialRectangle;html=1;whiteSpace=wrap;connectable=0;fillColor=none;top=0;left=0;bottom=0;right=0;overflow=hidden;fontStyle=1;fontSize=14;swimlaneLine=1;" parent="VrX1W8BqQ0QLpx3KH8ts-14" vertex="1">
          <mxGeometry x="832" width="208" height="40" as="geometry">
            <mxRectangle width="208" height="40" as="alternateBounds" />
          </mxGeometry>
        </mxCell>
        <mxCell id="VrX1W8BqQ0QLpx3KH8ts-19" value="" style="shape=tableRow;horizontal=0;startSize=0;swimlaneHead=0;swimlaneBody=0;top=0;left=0;bottom=0;right=0;collapsible=0;dropTarget=0;fillColor=none;points=[[0,0.5],[1,0.5]];portConstraint=eastwest;swimlaneLine=1;" parent="VrX1W8BqQ0QLpx3KH8ts-13" vertex="1">
          <mxGeometry y="40" width="1040" height="39" as="geometry" />
        </mxCell>
        <mxCell id="VrX1W8BqQ0QLpx3KH8ts-20" value="" style="shape=partialRectangle;html=1;whiteSpace=wrap;connectable=0;fillColor=none;top=0;left=0;bottom=0;right=0;overflow=hidden;swimlaneLine=1;" parent="VrX1W8BqQ0QLpx3KH8ts-19" vertex="1">
          <mxGeometry width="208" height="39" as="geometry">
            <mxRectangle width="208" height="39" as="alternateBounds" />
          </mxGeometry>
        </mxCell>
        <mxCell id="VrX1W8BqQ0QLpx3KH8ts-21" value="" style="shape=partialRectangle;html=1;whiteSpace=wrap;connectable=0;fillColor=none;top=0;left=0;bottom=0;right=0;overflow=hidden;swimlaneLine=1;" parent="VrX1W8BqQ0QLpx3KH8ts-19" vertex="1">
          <mxGeometry x="208" width="208" height="39" as="geometry">
            <mxRectangle width="208" height="39" as="alternateBounds" />
          </mxGeometry>
        </mxCell>
        <mxCell id="VrX1W8BqQ0QLpx3KH8ts-22" style="shape=partialRectangle;html=1;whiteSpace=wrap;connectable=0;fillColor=none;top=0;left=0;bottom=0;right=0;overflow=hidden;swimlaneLine=1;" parent="VrX1W8BqQ0QLpx3KH8ts-19" vertex="1">
          <mxGeometry x="416" width="208" height="39" as="geometry">
            <mxRectangle width="208" height="39" as="alternateBounds" />
          </mxGeometry>
        </mxCell>
        <mxCell id="VrX1W8BqQ0QLpx3KH8ts-23" style="shape=partialRectangle;html=1;whiteSpace=wrap;connectable=0;fillColor=none;top=0;left=0;bottom=0;right=0;overflow=hidden;swimlaneLine=1;" parent="VrX1W8BqQ0QLpx3KH8ts-19" vertex="1">
          <mxGeometry x="624" width="208" height="39" as="geometry">
            <mxRectangle width="208" height="39" as="alternateBounds" />
          </mxGeometry>
        </mxCell>
        <mxCell id="l9pdDCKhReNczKO_Nlx6-7" style="shape=partialRectangle;html=1;whiteSpace=wrap;connectable=0;fillColor=none;top=0;left=0;bottom=0;right=0;overflow=hidden;swimlaneLine=1;" parent="VrX1W8BqQ0QLpx3KH8ts-19" vertex="1">
          <mxGeometry x="832" width="208" height="39" as="geometry">
            <mxRectangle width="208" height="39" as="alternateBounds" />
          </mxGeometry>
        </mxCell>
        <mxCell id="VrX1W8BqQ0QLpx3KH8ts-24" value="" style="shape=tableRow;horizontal=0;startSize=0;swimlaneHead=0;swimlaneBody=0;top=0;left=0;bottom=0;right=0;collapsible=0;dropTarget=0;fillColor=none;points=[[0,0.5],[1,0.5]];portConstraint=eastwest;swimlaneLine=1;" parent="VrX1W8BqQ0QLpx3KH8ts-13" vertex="1">
          <mxGeometry y="79" width="1040" height="41" as="geometry" />
        </mxCell>
        <mxCell id="VrX1W8BqQ0QLpx3KH8ts-25" value="" style="shape=partialRectangle;html=1;whiteSpace=wrap;connectable=0;fillColor=none;top=0;left=0;bottom=0;right=0;overflow=hidden;swimlaneLine=1;" parent="VrX1W8BqQ0QLpx3KH8ts-24" vertex="1">
          <mxGeometry width="208" height="41" as="geometry">
            <mxRectangle width="208" height="41" as="alternateBounds" />
          </mxGeometry>
        </mxCell>
        <mxCell id="VrX1W8BqQ0QLpx3KH8ts-26" value="" style="shape=partialRectangle;html=1;whiteSpace=wrap;connectable=0;fillColor=none;top=0;left=0;bottom=0;right=0;overflow=hidden;swimlaneLine=1;" parent="VrX1W8BqQ0QLpx3KH8ts-24" vertex="1">
          <mxGeometry x="208" width="208" height="41" as="geometry">
            <mxRectangle width="208" height="41" as="alternateBounds" />
          </mxGeometry>
        </mxCell>
        <mxCell id="VrX1W8BqQ0QLpx3KH8ts-27" style="shape=partialRectangle;html=1;whiteSpace=wrap;connectable=0;fillColor=none;top=0;left=0;bottom=0;right=0;overflow=hidden;swimlaneLine=1;" parent="VrX1W8BqQ0QLpx3KH8ts-24" vertex="1">
          <mxGeometry x="416" width="208" height="41" as="geometry">
            <mxRectangle width="208" height="41" as="alternateBounds" />
          </mxGeometry>
        </mxCell>
        <mxCell id="VrX1W8BqQ0QLpx3KH8ts-28" style="shape=partialRectangle;html=1;whiteSpace=wrap;connectable=0;fillColor=none;top=0;left=0;bottom=0;right=0;overflow=hidden;swimlaneLine=1;" parent="VrX1W8BqQ0QLpx3KH8ts-24" vertex="1">
          <mxGeometry x="624" width="208" height="41" as="geometry">
            <mxRectangle width="208" height="41" as="alternateBounds" />
          </mxGeometry>
        </mxCell>
        <mxCell id="l9pdDCKhReNczKO_Nlx6-8" style="shape=partialRectangle;html=1;whiteSpace=wrap;connectable=0;fillColor=none;top=0;left=0;bottom=0;right=0;overflow=hidden;swimlaneLine=1;" parent="VrX1W8BqQ0QLpx3KH8ts-24" vertex="1">
          <mxGeometry x="832" width="208" height="41" as="geometry">
            <mxRectangle width="208" height="41" as="alternateBounds" />
          </mxGeometry>
        </mxCell>
        <mxCell id="VrX1W8BqQ0QLpx3KH8ts-29" style="shape=tableRow;horizontal=0;startSize=0;swimlaneHead=0;swimlaneBody=0;top=0;left=0;bottom=0;right=0;collapsible=0;dropTarget=0;fillColor=none;points=[[0,0.5],[1,0.5]];portConstraint=eastwest;swimlaneLine=1;" parent="VrX1W8BqQ0QLpx3KH8ts-13" vertex="1">
          <mxGeometry y="120" width="1040" height="39" as="geometry" />
        </mxCell>
        <mxCell id="VrX1W8BqQ0QLpx3KH8ts-30" style="shape=partialRectangle;html=1;whiteSpace=wrap;connectable=0;fillColor=none;top=0;left=0;bottom=0;right=0;overflow=hidden;swimlaneLine=1;" parent="VrX1W8BqQ0QLpx3KH8ts-29" vertex="1">
          <mxGeometry width="208" height="39" as="geometry">
            <mxRectangle width="208" height="39" as="alternateBounds" />
          </mxGeometry>
        </mxCell>
        <mxCell id="VrX1W8BqQ0QLpx3KH8ts-31" style="shape=partialRectangle;html=1;whiteSpace=wrap;connectable=0;fillColor=none;top=0;left=0;bottom=0;right=0;overflow=hidden;swimlaneLine=1;" parent="VrX1W8BqQ0QLpx3KH8ts-29" vertex="1">
          <mxGeometry x="208" width="208" height="39" as="geometry">
            <mxRectangle width="208" height="39" as="alternateBounds" />
          </mxGeometry>
        </mxCell>
        <mxCell id="VrX1W8BqQ0QLpx3KH8ts-32" style="shape=partialRectangle;html=1;whiteSpace=wrap;connectable=0;fillColor=none;top=0;left=0;bottom=0;right=0;overflow=hidden;swimlaneLine=1;" parent="VrX1W8BqQ0QLpx3KH8ts-29" vertex="1">
          <mxGeometry x="416" width="208" height="39" as="geometry">
            <mxRectangle width="208" height="39" as="alternateBounds" />
          </mxGeometry>
        </mxCell>
        <mxCell id="VrX1W8BqQ0QLpx3KH8ts-33" style="shape=partialRectangle;html=1;whiteSpace=wrap;connectable=0;fillColor=none;top=0;left=0;bottom=0;right=0;overflow=hidden;swimlaneLine=1;" parent="VrX1W8BqQ0QLpx3KH8ts-29" vertex="1">
          <mxGeometry x="624" width="208" height="39" as="geometry">
            <mxRectangle width="208" height="39" as="alternateBounds" />
          </mxGeometry>
        </mxCell>
        <mxCell id="l9pdDCKhReNczKO_Nlx6-9" style="shape=partialRectangle;html=1;whiteSpace=wrap;connectable=0;fillColor=none;top=0;left=0;bottom=0;right=0;overflow=hidden;swimlaneLine=1;" parent="VrX1W8BqQ0QLpx3KH8ts-29" vertex="1">
          <mxGeometry x="832" width="208" height="39" as="geometry">
            <mxRectangle width="208" height="39" as="alternateBounds" />
          </mxGeometry>
        </mxCell>
        <mxCell id="VrX1W8BqQ0QLpx3KH8ts-34" style="shape=tableRow;horizontal=0;startSize=0;swimlaneHead=0;swimlaneBody=0;top=0;left=0;bottom=0;right=0;collapsible=0;dropTarget=0;fillColor=none;points=[[0,0.5],[1,0.5]];portConstraint=eastwest;swimlaneLine=1;" parent="VrX1W8BqQ0QLpx3KH8ts-13" vertex="1">
          <mxGeometry y="159" width="1040" height="40" as="geometry" />
        </mxCell>
        <mxCell id="VrX1W8BqQ0QLpx3KH8ts-35" style="shape=partialRectangle;html=1;whiteSpace=wrap;connectable=0;fillColor=none;top=0;left=0;bottom=0;right=0;overflow=hidden;swimlaneLine=1;" parent="VrX1W8BqQ0QLpx3KH8ts-34" vertex="1">
          <mxGeometry width="208" height="40" as="geometry">
            <mxRectangle width="208" height="40" as="alternateBounds" />
          </mxGeometry>
        </mxCell>
        <mxCell id="VrX1W8BqQ0QLpx3KH8ts-36" style="shape=partialRectangle;html=1;whiteSpace=wrap;connectable=0;fillColor=none;top=0;left=0;bottom=0;right=0;overflow=hidden;swimlaneLine=1;" parent="VrX1W8BqQ0QLpx3KH8ts-34" vertex="1">
          <mxGeometry x="208" width="208" height="40" as="geometry">
            <mxRectangle width="208" height="40" as="alternateBounds" />
          </mxGeometry>
        </mxCell>
        <mxCell id="VrX1W8BqQ0QLpx3KH8ts-37" style="shape=partialRectangle;html=1;whiteSpace=wrap;connectable=0;fillColor=none;top=0;left=0;bottom=0;right=0;overflow=hidden;swimlaneLine=1;" parent="VrX1W8BqQ0QLpx3KH8ts-34" vertex="1">
          <mxGeometry x="416" width="208" height="40" as="geometry">
            <mxRectangle width="208" height="40" as="alternateBounds" />
          </mxGeometry>
        </mxCell>
        <mxCell id="VrX1W8BqQ0QLpx3KH8ts-38" style="shape=partialRectangle;html=1;whiteSpace=wrap;connectable=0;fillColor=none;top=0;left=0;bottom=0;right=0;overflow=hidden;swimlaneLine=1;" parent="VrX1W8BqQ0QLpx3KH8ts-34" vertex="1">
          <mxGeometry x="624" width="208" height="40" as="geometry">
            <mxRectangle width="208" height="40" as="alternateBounds" />
          </mxGeometry>
        </mxCell>
        <mxCell id="l9pdDCKhReNczKO_Nlx6-10" style="shape=partialRectangle;html=1;whiteSpace=wrap;connectable=0;fillColor=none;top=0;left=0;bottom=0;right=0;overflow=hidden;swimlaneLine=1;" parent="VrX1W8BqQ0QLpx3KH8ts-34" vertex="1">
          <mxGeometry x="832" width="208" height="40" as="geometry">
            <mxRectangle width="208" height="40" as="alternateBounds" />
          </mxGeometry>
        </mxCell>
        <mxCell id="VrX1W8BqQ0QLpx3KH8ts-49" value="Сохранить" style="strokeWidth=1;shadow=0;dashed=0;align=center;html=1;shape=mxgraph.mockup.buttons.button;strokeColor=#666666;fontColor=#ffffff;mainText=;buttonStyle=round;fontSize=17;fontStyle=1;fillColor=#008cff;whiteSpace=wrap;" parent="1" vertex="1">
          <mxGeometry x="520" y="170" width="100" height="30" as="geometry" />
        </mxCell>
        <mxCell id="VrX1W8BqQ0QLpx3KH8ts-50" value="Загрузить" style="strokeWidth=1;shadow=0;dashed=0;align=center;html=1;shape=mxgraph.mockup.buttons.button;strokeColor=#666666;fontColor=#ffffff;mainText=;buttonStyle=round;fontSize=17;fontStyle=1;fillColor=#008cff;whiteSpace=wrap;" parent="1" vertex="1">
          <mxGeometry x="400" y="170" width="100" height="30" as="geometry" />
        </mxCell>
        <mxCell id="l9pdDCKhReNczKO_Nlx6-2" value="" style="endArrow=none;html=1;rounded=0;" parent="1" edge="1">
          <mxGeometry width="50" height="50" relative="1" as="geometry">
            <mxPoint x="20" y="840" as="sourcePoint" />
            <mxPoint x="20" y="120" as="targetPoint" />
          </mxGeometry>
        </mxCell>
        <mxCell id="l9pdDCKhReNczKO_Nlx6-3" value="" style="endArrow=none;html=1;rounded=0;" parent="1" edge="1">
          <mxGeometry width="50" height="50" relative="1" as="geometry">
            <mxPoint x="20" y="840" as="sourcePoint" />
            <mxPoint x="1080" y="840" as="targetPoint" />
          </mxGeometry>
        </mxCell>
        <mxCell id="l9pdDCKhReNczKO_Nlx6-4" value="" style="endArrow=none;html=1;rounded=0;" parent="1" edge="1">
          <mxGeometry width="50" height="50" relative="1" as="geometry">
            <mxPoint x="1080" y="840" as="sourcePoint" />
            <mxPoint x="1080" y="120" as="targetPoint" />
          </mxGeometry>
        </mxCell>
        <mxCell id="l9pdDCKhReNczKO_Nlx6-5" value="" style="endArrow=none;html=1;rounded=0;" parent="1" edge="1">
          <mxGeometry width="50" height="50" relative="1" as="geometry">
            <mxPoint x="1080" y="120" as="sourcePoint" />
            <mxPoint x="20" y="120" as="targetPoint" />
          </mxGeometry>
        </mxCell>
        <mxCell id="l9pdDCKhReNczKO_Nlx6-14" value="" style="endArrow=none;html=1;rounded=0;" parent="1" edge="1">
          <mxGeometry width="50" height="50" relative="1" as="geometry">
            <mxPoint x="30" y="160" as="sourcePoint" />
            <mxPoint x="1070" y="210" as="targetPoint" />
            <Array as="points">
              <mxPoint x="1070" y="160" />
            </Array>
          </mxGeometry>
        </mxCell>
        <mxCell id="l9pdDCKhReNczKO_Nlx6-15" value="" style="endArrow=none;html=1;rounded=0;" parent="1" edge="1">
          <mxGeometry width="50" height="50" relative="1" as="geometry">
            <mxPoint x="30" y="160" as="sourcePoint" />
            <mxPoint x="1070" y="210" as="targetPoint" />
            <Array as="points">
              <mxPoint x="30" y="210" />
            </Array>
          </mxGeometry>
        </mxCell>
        <mxCell id="l9pdDCKhReNczKO_Nlx6-17" value="" style="endArrow=none;html=1;rounded=0;" parent="1" edge="1">
          <mxGeometry width="50" height="50" relative="1" as="geometry">
            <mxPoint x="20" y="150" as="sourcePoint" />
            <mxPoint x="1080" y="150" as="targetPoint" />
          </mxGeometry>
        </mxCell>
        <mxCell id="l9pdDCKhReNczKO_Nlx6-18" value="" style="endArrow=none;html=1;rounded=0;" parent="1" edge="1">
          <mxGeometry width="50" height="50" relative="1" as="geometry">
            <mxPoint x="30" y="830" as="sourcePoint" />
            <mxPoint x="1073.8095238095239" y="780" as="targetPoint" />
            <Array as="points">
              <mxPoint x="30" y="780" />
            </Array>
          </mxGeometry>
        </mxCell>
        <mxCell id="l9pdDCKhReNczKO_Nlx6-19" value="" style="endArrow=none;html=1;rounded=0;" parent="1" edge="1">
          <mxGeometry width="50" height="50" relative="1" as="geometry">
            <mxPoint x="1073.809523809523" y="780.5" as="sourcePoint" />
            <mxPoint x="29.99999999999909" y="830.5" as="targetPoint" />
            <Array as="points">
              <mxPoint x="1073.809523809523" y="830.5" />
            </Array>
          </mxGeometry>
        </mxCell>
      </root>
    </mxGraphModel>
  </diagram>
</mxfile>
